<?xml version="1.0" encoding="UTF-8"?>
<svg xmlns="http://www.w3.org/2000/svg" viewBox="0 0 478.93 424.64">
  <defs>
    <style>
      .cls-1 {
        fill: none;
      }

      .cls-2 {
        fill: #ae7461;
      }

      .cls-3 {
        fill: #ff725e;
      }

      .cls-4 {
        fill: #263238;
      }

      .cls-5 {
        fill: #6f4439;
      }

      .cls-6 {
        fill: #fff;
      }

      .cls-7 {
        opacity: .3;
      }

      .cls-8 {
        fill: #f5f5f5;
      }

      .cls-9 {
        fill: #455a64;
      }

      .cls-10 {
        fill: #e0e0e0;
      }
    </style>
  </defs>
  <g id="Background_Complete" data-name="Background Complete">
    <path class="cls-10" d="M339.86,202.21c4.7-2.84,9.71-5,14.88-6.47l3.06-14.72,24.88-.44,3.58,14.61c5.21,1.28,10.29,3.26,15.09,5.94l12.57-8.24,17.9,17.28-7.79,12.85c2.84,4.71,5,9.71,6.46,14.88l14.72,3.06.44,24.88-14.61,3.58c-1.28,5.21-3.26,10.29-5.94,15.09l8.24,12.57-17.28,17.9-12.85-7.79c-4.7,2.84-9.71,5-14.88,6.46l-3.06,14.72-24.88.44-3.58-14.61c-5.21-1.28-10.29-3.26-15.09-5.94l-12.57,8.24-17.9-17.28,7.79-12.85c-2.84-4.7-5-9.71-6.47-14.88l-14.72-3.06-.44-24.88,14.61-3.58c1.28-5.21,3.26-10.29,5.94-15.09l-8.24-12.57,17.28-17.9,12.86,7.79h0ZM353.12,235.36c-10.24,10.61-9.94,27.5.66,37.74,10.61,10.24,27.5,9.94,37.74-.66,10.24-10.61,9.94-27.5-.66-37.74-10.61-10.24-27.5-9.94-37.74.66Z"/>
    <path class="cls-10" d="M399.76,337.35c1.94-1.17,4-2.06,6.12-2.66l1.26-6.06,10.24-.18,1.47,6.01c2.14.53,4.24,1.34,6.21,2.44l5.17-3.39,7.36,7.11-3.21,5.29c1.17,1.94,2.06,4,2.66,6.12l6.06,1.26.18,10.24-6.01,1.47c-.53,2.14-1.34,4.23-2.44,6.21l3.39,5.17-7.11,7.36-5.29-3.21c-1.94,1.17-4,2.06-6.12,2.66l-1.26,6.06-10.23.18-1.47-6.01c-2.14-.53-4.23-1.34-6.21-2.44l-5.17,3.39-7.36-7.11,3.21-5.29c-1.17-1.94-2.06-4-2.66-6.12l-6.06-1.26-.18-10.24,6.01-1.47c.53-2.14,1.34-4.23,2.44-6.21l-3.39-5.17,7.11-7.36,5.29,3.21h0ZM405.22,350.98c-4.21,4.36-4.09,11.32.27,15.53,4.36,4.21,11.32,4.09,15.53-.27s4.09-11.32-.27-15.53c-4.36-4.21-11.32-4.09-15.53.27Z"/>
    <path class="cls-10" d="M26.59,216.46c2.37-1.43,4.89-2.52,7.49-3.25l1.54-7.41,12.52-.22,1.8,7.35c2.62.65,5.18,1.64,7.6,2.99l6.33-4.15,9.01,8.7-3.92,6.47c1.43,2.37,2.52,4.89,3.25,7.49l7.41,1.54.22,12.52-7.35,1.8c-.65,2.62-1.64,5.18-2.99,7.6l4.15,6.33-8.7,9.01-6.47-3.92c-2.37,1.43-4.89,2.52-7.49,3.25l-1.54,7.41-12.52.22-1.8-7.35c-2.62-.65-5.18-1.64-7.6-2.99l-6.33,4.15-9.01-8.7,3.92-6.47c-1.43-2.37-2.52-4.89-3.25-7.49l-7.41-1.54-.22-12.52,7.35-1.8c.65-2.62,1.64-5.18,2.99-7.6l-4.15-6.33,8.7-9.01,6.47,3.92h0ZM33.26,233.14c-5.15,5.34-5,13.84.33,19,5.34,5.15,13.84,5,19-.33,5.15-5.34,5-13.84-.33-19-5.34-5.15-13.84-5-19,.33Z"/>
    <path class="cls-10" d="M426.26,144.07c1.62-.98,3.35-1.72,5.13-2.23l1.06-5.08,8.58-.15,1.24,5.04c1.8.44,3.55,1.13,5.21,2.05l4.34-2.84,6.18,5.96-2.69,4.43c.98,1.62,1.72,3.35,2.23,5.13l5.08,1.06.15,8.58-5.04,1.24c-.44,1.8-1.13,3.55-2.05,5.21l2.84,4.34-5.96,6.18-4.43-2.69c-1.62.98-3.35,1.72-5.13,2.23l-1.06,5.08-8.58.15-1.24-5.04c-1.8-.44-3.55-1.13-5.21-2.05l-4.34,2.84-6.18-5.96,2.69-4.43c-.98-1.62-1.72-3.35-2.23-5.13l-5.08-1.06-.15-8.58,5.04-1.24c.44-1.8,1.13-3.55,2.05-5.21l-2.84-4.34,5.96-6.18,4.44,2.69h0ZM430.84,155.51c-3.53,3.66-3.43,9.49.23,13.02,3.66,3.53,9.49,3.43,13.02-.23,3.53-3.66,3.43-9.49-.23-13.02-3.66-3.53-9.49-3.43-13.02.23Z"/>
    <path class="cls-10" d="M138.94,37.63c4.13-2.5,8.53-4.39,13.07-5.68l2.69-12.93,21.85-.38,3.14,12.83c4.58,1.13,9.04,2.87,13.26,5.22l11.04-7.24,15.72,15.18-6.84,11.29c2.5,4.13,4.39,8.53,5.68,13.07l12.93,2.69.38,21.85-12.83,3.15c-1.13,4.58-2.87,9.04-5.22,13.26l7.24,11.04-15.18,15.72-11.29-6.85c-4.13,2.5-8.53,4.39-13.07,5.68l-2.69,12.93-21.85.38-3.15-12.83c-4.58-1.13-9.04-2.87-13.26-5.22l-11.04,7.24-15.72-15.18,6.85-11.29c-2.5-4.13-4.39-8.53-5.68-13.07l-12.93-2.69-.38-21.85,12.83-3.15c1.13-4.58,2.87-9.04,5.22-13.26l-7.24-11.04,15.18-15.72,11.29,6.85h0ZM150.59,66.74c-8.99,9.32-8.73,24.16.58,33.15,9.32,8.99,24.16,8.73,33.15-.58,8.99-9.32,8.73-24.16-.58-33.15-9.32-8.99-24.16-8.73-33.15.58Z"/>
  </g>
  <g id="Speech_Bubble" data-name="Speech Bubble">
    <g>
      <g>
        <g>
          <circle class="cls-6" cx="75.31" cy="96.02" r="50.7" transform="translate(-31.71 154.67) rotate(-80.62)"/>
          <path class="cls-4" d="M126.01,96.02s-.05-.28-.09-.82c-.04-.59-.1-1.38-.17-2.4-.03-.53-.07-1.12-.11-1.77-.07-.65-.21-1.35-.33-2.11-.25-1.53-.48-3.3-1.07-5.22-.9-3.91-2.74-8.52-5.63-13.42-2.92-4.87-7.12-9.96-12.83-14.27-5.7-4.27-12.88-7.91-21.18-9.37-8.24-1.41-17.54-1.16-26.39,2.21-2.25.72-4.37,1.84-6.55,2.88-2.06,1.25-4.24,2.4-6.16,3.96-2.04,1.4-3.83,3.16-5.69,4.84-1.69,1.87-3.46,3.7-4.92,5.82-2.99,4.15-5.6,8.76-7.18,13.83-1.64,5.04-2.52,10.39-2.59,15.84.07,5.45.95,10.8,2.59,15.84,1.58,5.07,4.19,9.68,7.18,13.84,1.46,2.12,3.23,3.95,4.92,5.82,1.87,1.69,3.65,3.44,5.7,4.84,1.92,1.56,4.09,2.71,6.16,3.96,2.18,1.05,4.3,2.16,6.55,2.88,8.86,3.37,18.16,3.62,26.4,2.21,8.3-1.47,15.48-5.1,21.18-9.38,5.72-4.32,9.92-9.4,12.83-14.27,2.89-4.89,4.73-9.51,5.63-13.41.59-1.92.82-3.69,1.07-5.22.12-.76.26-1.47.33-2.11.04-.65.08-1.24.11-1.77.07-1.02.13-1.82.17-2.4.04-.54.08-.82.09-.82s.02.28,0,.82c-.02.59-.04,1.39-.07,2.42-.02.54-.04,1.13-.07,1.78-.06.65-.18,1.36-.28,2.13-.22,1.54-.42,3.33-.98,5.27-.85,3.95-2.65,8.63-5.53,13.61-2.9,4.95-7.11,10.14-12.88,14.55-5.75,4.37-13.03,8.1-21.46,9.63-8.37,1.48-17.83,1.24-26.86-2.16-2.3-.73-4.46-1.86-6.68-2.92-2.11-1.26-4.32-2.43-6.28-4.02-2.08-1.43-3.91-3.21-5.81-4.93-1.73-1.9-3.54-3.77-5.02-5.93-3.05-4.23-5.72-8.93-7.33-14.1-1.67-5.14-2.57-10.6-2.64-16.16.07-5.55.97-11.01,2.65-16.15,1.62-5.17,4.28-9.87,7.33-14.1,1.49-2.16,3.3-4.02,5.02-5.93,1.91-1.72,3.73-3.5,5.81-4.93,1.96-1.59,4.18-2.76,6.28-4.02,2.22-1.06,4.38-2.19,6.68-2.92,9.03-3.4,18.49-3.63,26.86-2.16,8.43,1.53,15.71,5.26,21.46,9.63,5.77,4.41,9.98,9.6,12.88,14.55,2.88,4.97,4.68,9.65,5.53,13.61.56,1.95.77,3.74.99,5.28.1.77.23,1.48.28,2.13.02.65.05,1.25.07,1.78.03,1.02.05,1.83.07,2.42.01.54,0,.82,0,.82Z"/>
        </g>
        <g>
          <path class="cls-6" d="M134.8,137.54c0,3.91-3.17,7.08-7.08,7.08s-7.08-3.17-7.08-7.08,3.17-7.08,7.08-7.08,7.08,3.17,7.08,7.08Z"/>
          <path class="cls-4" d="M134.8,137.54c-.09,0-.1-.63-.41-1.68-.31-1.03-1.04-2.53-2.6-3.67-1.51-1.14-3.97-1.76-6.33-.87-2.34.82-4.35,3.31-4.33,6.22-.03,2.91,1.99,5.4,4.33,6.22,2.36.89,4.82.27,6.33-.87,1.56-1.14,2.29-2.63,2.6-3.67.31-1.05.32-1.69.41-1.68.05,0,.18.63-.03,1.78-.21,1.12-.88,2.8-2.55,4.14-1.61,1.34-4.36,2.14-7.07,1.18-2.69-.88-5.05-3.74-5.02-7.09-.03-3.35,2.33-6.21,5.02-7.09,2.71-.97,5.46-.16,7.07,1.18,1.67,1.34,2.34,3.02,2.55,4.14.21,1.14.08,1.78.03,1.78Z"/>
        </g>
      </g>
      <g>
        <circle class="cls-4" cx="57.36" cy="96.69" r="4.53"/>
        <circle class="cls-4" cx="75.31" cy="96.69" r="4.53"/>
        <circle class="cls-4" cx="93.26" cy="96.69" r="4.53"/>
      </g>
    </g>
  </g>
  <g id="Gears">
    <g>
      <path class="cls-8" d="M91.81,172.28c2-1.21,4.13-2.13,6.33-2.75l1.3-6.27,10.59-.19,1.52,6.22c2.22.55,4.38,1.39,6.42,2.53l5.35-3.51,7.62,7.36-3.32,5.47c1.21,2,2.13,4.13,2.75,6.33l6.27,1.3.19,10.59-6.22,1.52c-.55,2.22-1.39,4.38-2.53,6.42l3.51,5.35-7.35,7.62-5.47-3.32c-2,1.21-4.13,2.13-6.33,2.75l-1.3,6.27-10.59.19-1.52-6.22c-2.22-.55-4.38-1.39-6.42-2.53l-5.35,3.51-7.62-7.36,3.32-5.47c-1.21-2-2.13-4.13-2.75-6.33l-6.27-1.3-.19-10.59,6.22-1.52c.55-2.22,1.39-4.38,2.53-6.42l-3.51-5.35,7.35-7.62,5.47,3.32h0ZM97.45,186.39c-4.36,4.51-4.23,11.7.28,16.06,4.51,4.36,11.7,4.23,16.06-.28,4.36-4.51,4.23-11.71-.28-16.06-4.51-4.36-11.7-4.23-16.06.28Z"/>
      <g>
        <path class="cls-1" d="M91.81,172.28c2-1.21,4.13-2.13,6.33-2.75l1.3-6.27,10.59-.19,1.52,6.22c2.22.55,4.38,1.39,6.42,2.53l5.35-3.51,7.62,7.36-3.32,5.47c1.21,2,2.13,4.13,2.75,6.33l6.27,1.3.19,10.59-6.22,1.52c-.55,2.22-1.39,4.38-2.53,6.42l3.51,5.35-7.35,7.62-5.47-3.32c-2,1.21-4.13,2.13-6.33,2.75l-1.3,6.27-10.59.19-1.52-6.22c-2.22-.55-4.38-1.39-6.42-2.53l-5.35,3.51-7.62-7.36,3.32-5.47c-1.21-2-2.13-4.13-2.75-6.33l-6.27-1.3-.19-10.59,6.22-1.52c.55-2.22,1.39-4.38,2.53-6.42l-3.51-5.35,7.35-7.62,5.47,3.32h0ZM97.45,186.39c-4.36,4.51-4.23,11.7.28,16.06,4.51,4.36,11.7,4.23,16.06-.28,4.36-4.51,4.23-11.71-.28-16.06-4.51-4.36-11.7-4.23-16.06.28Z"/>
        <path class="cls-4" d="M97.45,186.39s.61-.82,2.13-1.83c1.49-.99,4.1-2.08,7.39-1.73,1.62.19,3.4.72,5.01,1.79,1.6,1.07,3.11,2.59,4.05,4.57.5.97.84,2.05,1.03,3.17.2,1.12.23,2.3.06,3.48-.29,2.36-1.4,4.68-3.14,6.51-1.77,1.8-4.05,3-6.4,3.37-1.17.21-2.35.22-3.48.06-1.13-.15-2.22-.45-3.21-.91-2.01-.87-3.58-2.33-4.71-3.89-1.13-1.58-1.72-3.33-1.96-4.95-.47-3.28.53-5.92,1.47-7.45.96-1.56,1.76-2.19,1.76-2.19.06.05-.7.73-1.58,2.29-.86,1.53-1.78,4.12-1.28,7.29.26,1.56.85,3.24,1.95,4.75,1.1,1.49,2.62,2.88,4.55,3.7.95.44,1.99.72,3.08.86,1.08.15,2.21.14,3.33-.07,2.25-.36,4.42-1.51,6.11-3.22,1.66-1.75,2.73-3.96,3.01-6.22.17-1.12.14-2.25-.05-3.33-.17-1.08-.5-2.11-.97-3.04-.89-1.9-2.33-3.37-3.86-4.42-1.54-1.05-3.25-1.58-4.82-1.78-3.18-.39-5.74.62-7.24,1.53-1.53.94-2.19,1.72-2.24,1.66Z"/>
        <path class="cls-4" d="M91.81,172.28s-.12-.06-.35-.19c-.25-.15-.6-.35-1.05-.61-.95-.56-2.32-1.38-4.11-2.44h.1c-1.87,1.94-4.34,4.52-7.32,7.64l.02-.16c1.07,1.62,2.25,3.42,3.52,5.34l.05.08-.05.08c-1.04,1.89-1.92,4.03-2.49,6.39l-.02.1-.1.03c-1.94.48-4.03,1-6.21,1.54l.14-.18c.06,3.33.13,6.87.21,10.59l-.16-.2c1.94.4,4.08.84,6.27,1.29l.13.03.04.13c.58,2.05,1.49,4.23,2.74,6.27l.07.12-.07.12c-1.03,1.7-2.16,3.57-3.31,5.47l-.04-.29c2.39,2.31,4.98,4.8,7.63,7.35l-.3-.03c1.67-1.09,3.49-2.29,5.35-3.51l.13-.08.13.07c1.87,1.04,4.06,1.94,6.36,2.5l.15.04.04.15c.48,1.95,1,4.07,1.53,6.22l-.25-.19c3.35-.06,6.95-.12,10.59-.19l-.25.21c.41-1.98.86-4.12,1.3-6.27l.03-.15.15-.04c2.09-.59,4.26-1.5,6.26-2.72h0s.14-.08.14-.08l.13.08c1.84,1.11,3.66,2.22,5.47,3.32l-.32.04c2.48-2.57,4.94-5.11,7.36-7.62l-.03.32c-1.18-1.8-2.35-3.59-3.5-5.35l-.08-.13.08-.14c1.13-2.02,1.96-4.17,2.51-6.36l.04-.15.15-.04c2.1-.51,4.17-1.02,6.22-1.52l-.19.25c-.06-3.61-.12-7.15-.18-10.59l.19.23c-2.13-.44-4.21-.88-6.26-1.31l-.14-.03-.04-.14c-.64-2.25-1.56-4.36-2.72-6.28l-.07-.12.07-.12c1.14-1.87,2.24-3.69,3.32-5.47l.03.27c-2.68-2.59-5.2-5.04-7.61-7.37l.25.02c-1.88,1.23-3.65,2.38-5.36,3.5l-.1.06-.1-.06c-2.14-1.19-4.28-2-6.37-2.52l-.1-.03-.02-.1c-.55-2.26-1.04-4.3-1.51-6.22l.15.12c-4.1.06-7.6.11-10.59.15l.11-.09c-.53,2.5-.97,4.55-1.34,6.26v.05s-.06.01-.06.01c-2.24.63-3.82,1.36-4.84,1.87-.51.26-.89.47-1.14.6-.25.14-.38.2-.38.2,0,0,.12-.09.36-.24.24-.15.61-.37,1.12-.64,1.01-.54,2.59-1.3,4.83-1.96l-.06.06c.35-1.71.76-3.76,1.27-6.27l.02-.09h.09c2.99-.06,6.48-.14,10.59-.22h.12s.03.12.03.12c.48,1.92.98,3.95,1.54,6.21l-.13-.13c2.13.52,4.3,1.33,6.47,2.53h-.19c1.7-1.11,3.46-2.27,5.34-3.51l.13-.09.12.11c2.41,2.32,4.95,4.76,7.63,7.34l.12.12-.09.15c-1.07,1.78-2.17,3.6-3.31,5.47v-.23c1.18,1.95,2.13,4.1,2.78,6.39l-.18-.16c2.05.42,4.14.86,6.27,1.3l.19.04v.19c.07,3.44.13,6.97.2,10.59v.2s-.19.05-.19.05c-2.04.5-4.11,1.01-6.22,1.53l.18-.18c-.55,2.23-1.4,4.43-2.55,6.49v-.26c1.15,1.77,2.32,3.55,3.5,5.35l.11.17-.14.15c-2.42,2.51-4.87,5.05-7.35,7.62l-.14.15-.18-.11c-1.81-1.1-3.64-2.2-5.47-3.32h.27s0,0,0,0c-2.05,1.24-4.26,2.17-6.39,2.77l.18-.2c-.45,2.15-.89,4.29-1.31,6.27l-.04.2h-.21c-3.64.07-7.24.13-10.59.19h-.2s-.05-.19-.05-.19c-.52-2.15-1.04-4.27-1.52-6.22l.18.18c-2.35-.58-4.58-1.49-6.48-2.56h.26c-1.86,1.2-3.69,2.4-5.35,3.49l-.16.11-.14-.13c-2.64-2.56-5.22-5.05-7.61-7.36l-.13-.13.1-.16c1.16-1.9,2.29-3.77,3.32-5.47v.23c-1.26-2.09-2.18-4.31-2.77-6.39l.16.15c-2.19-.46-4.32-.91-6.26-1.31l-.16-.03v-.16c-.06-3.72-.12-7.25-.17-10.59v-.15s.14-.03.14-.03c2.18-.53,4.28-1.04,6.22-1.51l-.13.13c.59-2.39,1.49-4.55,2.56-6.46v.16c-1.25-1.93-2.43-3.74-3.48-5.36l-.06-.09.07-.08c3.01-3.09,5.5-5.65,7.39-7.58l.05-.05.06.03c1.76,1.09,3.11,1.93,4.04,2.5.45.28.79.5,1.04.65.23.15.35.24.35.24Z"/>
      </g>
    </g>
    <g>
      <path class="cls-8" d="M323.11,80.69c3.47-2.09,7.15-3.68,10.96-4.76l2.26-10.85,18.33-.32,2.64,10.76c3.84.95,7.58,2.4,11.12,4.38l9.26-6.07,13.19,12.73-5.74,9.47c2.09,3.47,3.68,7.16,4.76,10.96l10.85,2.26.32,18.33-10.76,2.64c-.95,3.84-2.4,7.58-4.38,11.12l6.07,9.26-12.73,13.19-9.47-5.74c-3.47,2.09-7.16,3.68-10.96,4.76l-2.26,10.85-18.33.32-2.64-10.76c-3.84-.95-7.58-2.4-11.12-4.38l-9.26,6.07-13.19-12.73,5.74-9.47c-2.09-3.47-3.68-7.16-4.76-10.96l-10.85-2.26-.32-18.33,10.76-2.64c.95-3.84,2.4-7.58,4.38-11.12l-6.07-9.26,12.73-13.19,9.47,5.74h0ZM332.88,105.11c-7.54,7.81-7.33,20.26.49,27.81,7.81,7.54,20.26,7.32,27.81-.49,7.54-7.81,7.33-20.26-.49-27.81-7.81-7.54-20.26-7.32-27.81.49Z"/>
      <g>
        <path class="cls-1" d="M323.11,80.69c3.47-2.09,7.15-3.68,10.96-4.76l2.26-10.85,18.33-.32,2.64,10.76c3.84.95,7.58,2.4,11.12,4.38l9.26-6.07,13.19,12.73-5.74,9.47c2.09,3.47,3.68,7.16,4.76,10.96l10.85,2.26.32,18.33-10.76,2.64c-.95,3.84-2.4,7.58-4.38,11.12l6.07,9.26-12.73,13.19-9.47-5.74c-3.47,2.09-7.16,3.68-10.96,4.76l-2.26,10.85-18.33.32-2.64-10.76c-3.84-.95-7.58-2.4-11.12-4.38l-9.26,6.07-13.19-12.73,5.74-9.47c-2.09-3.47-3.68-7.16-4.76-10.96l-10.85-2.26-.32-18.33,10.76-2.64c.95-3.84,2.4-7.58,4.38-11.12l-6.07-9.26,12.73-13.19,9.47,5.74h0ZM332.88,105.11c-7.54,7.81-7.33,20.26.49,27.81,7.81,7.54,20.26,7.32,27.81-.49,7.54-7.81,7.33-20.26-.49-27.81-7.81-7.54-20.26-7.32-27.81.49Z"/>
        <path class="cls-4" d="M332.88,105.11s.07-.09.21-.24c.17-.17.39-.39.67-.66.29-.3.66-.65,1.15-1,.47-.37,1.01-.82,1.69-1.21,1.3-.88,3.07-1.7,5.21-2.32,2.15-.6,4.72-.92,7.53-.6,2.79.33,5.83,1.25,8.61,3.09,2.74,1.85,5.33,4.47,6.94,7.86.85,1.67,1.44,3.52,1.75,5.45.2.96.23,1.95.3,2.95-.03,1-.03,2.01-.19,3.02-.49,4.05-2.41,8.03-5.38,11.17-1.52,1.54-3.25,2.82-5.11,3.81-1.85,1.01-3.87,1.61-5.86,1.97-1,.2-2.01.24-3.01.3-1-.03-1.99-.03-2.96-.19-1.94-.25-3.81-.77-5.5-1.56-3.45-1.49-6.16-3.98-8.1-6.66-1.94-2.71-2.97-5.72-3.39-8.49-.42-2.79-.19-5.38.33-7.55.54-2.17,1.3-3.96,2.14-5.29.37-.69.8-1.25,1.15-1.74.34-.5.68-.88.96-1.18.26-.29.47-.51.64-.69.15-.15.22-.23.23-.22s-.06.09-.19.26c-.15.18-.35.42-.59.72-.27.31-.59.7-.92,1.21-.34.49-.75,1.05-1.1,1.75-.8,1.33-1.52,3.12-2.03,5.26-.49,2.14-.69,4.69-.25,7.42.44,2.72,1.47,5.66,3.38,8.3,1.91,2.61,4.57,5.03,7.94,6.47,1.66.77,3.48,1.27,5.37,1.51.94.16,1.91.15,2.89.18.97-.07,1.96-.1,2.93-.3,3.93-.63,7.73-2.63,10.68-5.63,2.9-3.05,4.76-6.93,5.25-10.87.17-.98.16-1.97.2-2.94-.07-.97-.09-1.94-.28-2.88-.3-1.88-.87-3.69-1.69-5.32-1.56-3.32-4.07-5.89-6.75-7.71-2.7-1.82-5.68-2.74-8.41-3.09-2.75-.34-5.29-.05-7.41.51-2.12.58-3.88,1.37-5.18,2.21-.68.38-1.23.81-1.71,1.16-.49.34-.87.68-1.17.96-.29.26-.52.46-.7.62-.16.14-.25.21-.25.2Z"/>
        <path class="cls-4" d="M323.11,80.69s-.21-.11-.61-.35c-.42-.25-1.02-.6-1.81-1.07-1.61-.97-3.99-2.39-7.09-4.25h.1c-3.24,3.36-7.52,7.81-12.7,13.21l.02-.16c1.84,2.8,3.89,5.92,6.09,9.25l.05.08-.05.08c-1.81,3.27-3.34,7-4.34,11.09l-.02.1-.1.02c-3.35.83-6.98,1.72-10.76,2.65l.14-.18c.11,5.77.22,11.9.34,18.33l-.16-.2c3.36.7,7.06,1.46,10.85,2.25l.13.03.04.13c1.01,3.56,2.59,7.35,4.75,10.9l.07.12-.07.12c-1.78,2.94-3.74,6.18-5.74,9.47l-.04-.29c4.14,4,8.61,8.31,13.2,12.73l-.3-.03c2.88-1.89,6.05-3.97,9.26-6.08l.13-.08.13.07c3.25,1.82,7.06,3.37,11.06,4.35l.15.04.04.15c.83,3.37,1.73,7.05,2.64,10.76l-.25-.19c5.8-.1,12.02-.21,18.33-.33l-.25.21c.71-3.43,1.48-7.12,2.26-10.85l.03-.15.15-.04c3.63-1.03,7.4-2.62,10.89-4.73h0s.14-.09.14-.09l.13.08c3.18,1.93,6.33,3.84,9.47,5.74l-.32.04c4.3-4.45,8.55-8.85,12.73-13.19l-.03.32c-2.04-3.12-4.07-6.21-6.07-9.27l-.08-.13.08-.14c1.96-3.51,3.41-7.25,4.35-11.06l.04-.15.15-.04c3.64-.89,7.22-1.77,10.76-2.63l-.19.25c-.11-6.26-.21-12.37-.31-18.33l.19.23c-3.68-.77-7.3-1.52-10.85-2.26l-.14-.03-.04-.14c-1.11-3.91-2.72-7.58-4.73-10.91l-.07-.12.07-.12c1.97-3.25,3.88-6.39,5.75-9.46l.03.27c-4.64-4.48-9.01-8.72-13.18-12.75l.25.02c-3.26,2.13-6.32,4.13-9.27,6.06l-.09.06-.1-.06c-3.71-2.07-7.43-3.47-11.07-4.37l-.1-.03-.02-.1c-.95-3.91-1.81-7.44-2.62-10.77l.15.12c-7.11.11-13.16.2-18.33.28l.11-.09c-.92,4.34-1.67,7.89-2.29,10.84v.05s-.06.01-.06.01c-3.88,1.1-6.61,2.38-8.38,3.27-.89.45-1.53.81-1.96,1.05-.43.25-.64.36-.64.36,0,0,.21-.14.62-.39.42-.25,1.06-.63,1.94-1.09,1.76-.92,4.48-2.23,8.37-3.36l-.06.06c.6-2.95,1.33-6.51,2.23-10.86l.02-.09h.09c5.17-.1,11.22-.22,18.33-.36h.12s.03.12.03.12c.82,3.33,1.69,6.85,2.65,10.76l-.13-.13c3.67.9,7.42,2.3,11.17,4.38h-.19c2.95-1.93,6-3.94,9.26-6.08l.13-.09.11.11c4.17,4.02,8.56,8.25,13.2,12.72l.12.12-.09.15c-1.86,3.08-3.77,6.23-5.73,9.47v-.23c2.03,3.36,3.67,7.07,4.79,11.02l-.18-.16c3.55.74,7.17,1.49,10.85,2.25l.19.04v.19c.11,5.96.22,12.07.33,18.33v.2s-.19.05-.19.05c-3.54.87-7.12,1.75-10.76,2.64l.18-.18c-.95,3.85-2.42,7.63-4.4,11.18v-.26c1.99,3.06,4.02,6.14,6.06,9.26l.11.17-.14.15c-4.19,4.34-8.43,8.74-12.73,13.19l-.14.15-.18-.11c-3.14-1.9-6.29-3.82-9.47-5.74h.27s0,0,0,0c-3.53,2.14-7.34,3.74-11.02,4.78l.18-.2c-.78,3.72-1.55,7.42-2.26,10.85l-.04.2h-.21c-6.31.11-12.53.22-18.33.32h-.2s-.05-.19-.05-.19c-.91-3.71-1.81-7.39-2.64-10.76l.18.18c-4.05-.99-7.89-2.57-11.18-4.4h.26c-3.21,2.09-6.38,4.17-9.27,6.06l-.16.11-.14-.13c-4.58-4.42-9.04-8.74-13.18-12.74l-.13-.13.1-.16c2-3.3,3.97-6.53,5.75-9.47v.23c-2.18-3.6-3.77-7.42-4.78-11.02l.16.15c-3.79-.79-7.49-1.57-10.85-2.27l-.16-.03v-.16c-.11-6.43-.21-12.56-.3-18.33v-.15s.14-.03.14-.03c3.78-.92,7.41-1.81,10.77-2.62l-.13.13c1.02-4.12,2.57-7.87,4.41-11.15v.16c-2.18-3.34-4.22-6.47-6.05-9.28l-.06-.09.07-.08c5.21-5.37,9.51-9.8,12.77-13.15l.05-.05.06.03c3.07,1.89,5.42,3.33,7.02,4.31.79.49,1.39.86,1.8,1.12.4.25.61.39.61.39Z"/>
      </g>
    </g>
    <g>
      <path class="cls-8" d="M256.9,16.97c2.21-1.34,4.57-2.35,7-3.04l1.44-6.93,11.71-.21,1.69,6.88c2.45.6,4.85,1.54,7.11,2.8l5.92-3.88,8.43,8.14-3.67,6.05c1.34,2.22,2.35,4.57,3.04,7.01l6.93,1.44.21,11.71-6.88,1.69c-.6,2.45-1.54,4.85-2.8,7.11l3.88,5.92-8.14,8.43-6.05-3.67c-2.22,1.34-4.57,2.35-7.01,3.04l-1.44,6.93-11.71.21-1.69-6.88c-2.45-.6-4.85-1.54-7.11-2.8l-5.92,3.88-8.43-8.14,3.67-6.05c-1.34-2.22-2.35-4.57-3.04-7.01l-6.93-1.44-.21-11.71,6.88-1.69c.6-2.45,1.54-4.85,2.8-7.11l-3.88-5.92,8.14-8.43,6.05,3.67h0ZM263.14,32.57c-4.82,4.99-4.68,12.95.31,17.77,4.99,4.82,12.95,4.68,17.77-.31,4.82-4.99,4.68-12.95-.31-17.77-4.99-4.82-12.95-4.68-17.77.31Z"/>
      <g>
        <path class="cls-1" d="M256.9,16.97c2.21-1.34,4.57-2.35,7-3.04l1.44-6.93,11.71-.21,1.69,6.88c2.45.6,4.85,1.54,7.11,2.8l5.92-3.88,8.43,8.14-3.67,6.05c1.34,2.22,2.35,4.57,3.04,7.01l6.93,1.44.21,11.71-6.88,1.69c-.6,2.45-1.54,4.85-2.8,7.11l3.88,5.92-8.14,8.43-6.05-3.67c-2.22,1.34-4.57,2.35-7.01,3.04l-1.44,6.93-11.71.21-1.69-6.88c-2.45-.6-4.85-1.54-7.11-2.8l-5.92,3.88-8.43-8.14,3.67-6.05c-1.34-2.22-2.35-4.57-3.04-7.01l-6.93-1.44-.21-11.71,6.88-1.69c.6-2.45,1.54-4.85,2.8-7.11l-3.88-5.92,8.14-8.43,6.05,3.67h0ZM263.14,32.57c-4.82,4.99-4.68,12.95.31,17.77,4.99,4.82,12.95,4.68,17.77-.31,4.82-4.99,4.68-12.95-.31-17.77-4.99-4.82-12.95-4.68-17.77.31Z"/>
        <path class="cls-4" d="M263.14,32.57s.67-.92,2.35-2.04c1.65-1.09,4.53-2.31,8.18-1.92,1.8.2,3.76.79,5.55,1.98,1.77,1.19,3.44,2.87,4.49,5.06.55,1.07.93,2.27,1.14,3.52.22,1.24.26,2.55.07,3.85-.32,2.62-1.55,5.19-3.48,7.22-1.96,1.99-4.49,3.32-7.09,3.73-1.29.23-2.6.25-3.86.07-1.25-.16-2.46-.5-3.55-1.01-2.22-.97-3.97-2.58-5.22-4.31-1.25-1.75-1.91-3.69-2.17-5.48-.52-3.63.6-6.56,1.63-8.25,1.06-1.72,1.95-2.42,1.95-2.42.06.05-.77.82-1.74,2.54-.95,1.69-1.96,4.56-1.41,8.06.29,1.72.94,3.58,2.16,5.25,1.22,1.65,2.9,3.18,5.03,4.08,1.05.48,2.2.8,3.4.95,1.19.17,2.44.15,3.68-.08,2.48-.4,4.88-1.67,6.75-3.56,1.83-1.93,3.01-4.38,3.32-6.87.18-1.24.16-2.49-.05-3.68-.19-1.19-.55-2.33-1.07-3.36-.98-2.1-2.57-3.73-4.26-4.88-1.71-1.16-3.59-1.75-5.32-1.97-3.52-.43-6.35.68-8.01,1.69-1.69,1.04-2.42,1.89-2.48,1.83Z"/>
        <path class="cls-4" d="M256.9,16.97s-.13-.06-.39-.21c-.28-.16-.66-.39-1.16-.67-1.05-.62-2.57-1.53-4.55-2.7l.12-.02c-2.07,2.17-4.8,5.02-8.09,8.47l.02-.19c1.18,1.79,2.5,3.78,3.9,5.91l.06.09-.05.1c-1.15,2.09-2.12,4.46-2.76,7.07l-.03.12-.12.03c-2.14.53-4.46,1.11-6.87,1.7l.17-.22c.07,3.69.15,7.6.23,11.71l-.19-.23c2.15.44,4.51.93,6.93,1.43l.15.03.04.15c.64,2.26,1.65,4.67,3.03,6.94l.08.14-.08.14c-1.13,1.88-2.39,3.95-3.66,6.06l-.04-.34c2.65,2.55,5.51,5.31,8.44,8.13l-.36-.03c1.84-1.21,3.87-2.54,5.92-3.89l.15-.1.16.09c2.07,1.15,4.49,2.14,7.04,2.76l.18.04.04.18c.53,2.15,1.11,4.5,1.69,6.88l-.3-.23c3.71-.07,7.68-.14,11.71-.21l-.3.24c.46-2.19.95-4.55,1.44-6.93l.04-.18.18-.05c2.31-.65,4.7-1.66,6.92-3.01h0s.16-.1.16-.1l.16.1c2.03,1.23,4.05,2.45,6.05,3.67l-.38.05c2.75-2.84,5.46-5.66,8.14-8.43l-.04.38c-1.31-1.99-2.6-3.97-3.88-5.92l-.1-.15.09-.16c1.25-2.23,2.17-4.61,2.77-7.03l.04-.18.18-.04c2.33-.57,4.62-1.13,6.88-1.68l-.22.29c-.07-4-.13-7.9-.2-11.71l.23.27c-2.35-.49-4.66-.98-6.93-1.45l-.16-.03-.05-.16c-.7-2.49-1.73-4.82-3.01-6.94l-.08-.14.08-.14c1.26-2.07,2.48-4.08,3.68-6.05l.04.32c-2.96-2.87-5.75-5.58-8.41-8.15l.29.03c-2.08,1.36-4.04,2.64-5.93,3.87l-.11.07-.12-.07c-2.36-1.32-4.73-2.21-7.05-2.79l-.12-.03-.03-.12c-.61-2.5-1.15-4.75-1.67-6.88l.18.14c-4.54.06-8.41.12-11.71.16l.13-.11c-.59,2.77-1.08,5.04-1.48,6.92v.06s-.07.02-.07.02c-2.48.69-4.22,1.51-5.36,2.07-.57.28-.98.51-1.26.66-.28.16-.42.22-.42.22,0,0,.13-.1.39-.26.27-.16.67-.41,1.24-.71,1.12-.59,2.86-1.44,5.35-2.17l-.07.08c.38-1.89.84-4.17,1.4-6.94l.02-.11h.11c3.31-.07,7.17-.16,11.71-.25h.15s.04.14.04.14c.53,2.12,1.09,4.37,1.71,6.87l-.15-.15c2.35.58,4.76,1.47,7.17,2.8h-.23c1.88-1.23,3.83-2.52,5.91-3.88l.16-.1.14.13c2.67,2.57,5.47,5.27,8.44,8.12l.15.14-.11.18c-1.19,1.97-2.41,3.98-3.66,6.06v-.28c1.31,2.16,2.36,4.53,3.08,7.07l-.21-.2c2.27.47,4.58.95,6.93,1.44l.22.05v.23c.07,3.81.15,7.71.22,11.71v.24s-.22.06-.22.06c-2.26.56-4.55,1.12-6.88,1.69l.22-.22c-.61,2.47-1.55,4.9-2.82,7.18v-.31c1.27,1.95,2.56,3.93,3.87,5.92l.13.2-.17.18c-2.67,2.77-5.39,5.58-8.13,8.43l-.17.18-.21-.13c-2-1.21-4.02-2.44-6.05-3.67h.32s0,0,0,0c-2.27,1.37-4.71,2.4-7.07,3.07l.22-.23c-.5,2.38-.99,4.74-1.44,6.93l-.05.24h-.25c-4.03.07-8,.14-11.71.21h-.24s-.06-.23-.06-.23c-.58-2.37-1.16-4.72-1.68-6.88l.22.22c-2.6-.64-5.07-1.65-7.18-2.83h.3c-2.05,1.33-4.08,2.66-5.92,3.86l-.19.13-.17-.16c-2.92-2.83-5.78-5.59-8.42-8.15l-.16-.15.11-.19c1.28-2.11,2.54-4.17,3.68-6.05v.28c-1.4-2.31-2.41-4.77-3.06-7.07l.19.18c-2.42-.51-4.78-1-6.93-1.45l-.19-.04v-.19c-.07-4.11-.13-8.02-.19-11.71v-.18s.17-.04.17-.04c2.42-.59,4.74-1.15,6.88-1.67l-.15.15c.66-2.64,1.65-5.04,2.83-7.15v.19c-1.38-2.14-2.68-4.14-3.85-5.93l-.07-.11.09-.09c3.33-3.42,6.09-6.24,8.18-8.39l.06-.06.07.04c1.94,1.2,3.44,2.13,4.47,2.77.49.31.87.55,1.15.72.26.17.39.26.39.26Z"/>
      </g>
    </g>
    <g>
      <path class="cls-8" d="M110.44,258.78c3.62-2.19,7.47-3.84,11.44-4.97l2.36-11.32,19.13-.34,2.75,11.23c4.01.99,7.92,2.51,11.61,4.57l9.67-6.34,13.76,13.29-5.99,9.88c2.19,3.62,3.84,7.47,4.97,11.44l11.32,2.36.34,19.13-11.23,2.75c-.99,4.01-2.51,7.91-4.57,11.61l6.34,9.67-13.29,13.76-9.88-5.99c-3.62,2.19-7.47,3.84-11.44,4.97l-2.36,11.32-19.13.34-2.75-11.23c-4.01-.99-7.91-2.51-11.61-4.57l-9.67,6.34-13.76-13.29,5.99-9.88c-2.19-3.62-3.84-7.47-4.97-11.44l-11.32-2.36-.34-19.13,11.23-2.75c.99-4.01,2.51-7.91,4.57-11.61l-6.34-9.67,13.29-13.76,9.89,5.99h0ZM120.64,284.26c-7.87,8.16-7.64,21.15.51,29.02,8.15,7.87,21.15,7.64,29.02-.51,7.87-8.15,7.64-21.15-.51-29.02-8.15-7.87-21.15-7.64-29.02.51Z"/>
      <g>
        <path class="cls-1" d="M110.44,258.78c3.62-2.19,7.47-3.84,11.44-4.97l2.36-11.32,19.13-.34,2.75,11.23c4.01.99,7.92,2.51,11.61,4.57l9.67-6.34,13.76,13.29-5.99,9.88c2.19,3.62,3.84,7.47,4.97,11.44l11.32,2.36.34,19.13-11.23,2.75c-.99,4.01-2.51,7.91-4.57,11.61l6.34,9.67-13.29,13.76-9.88-5.99c-3.62,2.19-7.47,3.84-11.44,4.97l-2.36,11.32-19.13.34-2.75-11.23c-4.01-.99-7.91-2.51-11.61-4.57l-9.67,6.34-13.76-13.29,5.99-9.88c-2.19-3.62-3.84-7.47-4.97-11.44l-11.32-2.36-.34-19.13,11.23-2.75c.99-4.01,2.51-7.91,4.57-11.61l-6.34-9.67,13.29-13.76,9.89,5.99h0ZM120.64,284.26c-7.87,8.16-7.64,21.15.51,29.02,8.15,7.87,21.15,7.64,29.02-.51,7.87-8.15,7.64-21.15-.51-29.02-8.15-7.87-21.15-7.64-29.02.51Z"/>
        <path class="cls-4" d="M120.64,284.26s.07-.09.22-.25c.18-.17.41-.4.7-.69.3-.31.69-.67,1.2-1.05.5-.39,1.06-.85,1.77-1.26,1.36-.92,3.2-1.78,5.44-2.42,2.24-.63,4.93-.96,7.86-.62,2.91.34,6.09,1.3,8.98,3.23,2.86,1.93,5.56,4.66,7.24,8.2.46.86.78,1.8,1.13,2.74.26.96.58,1.93.7,2.94.21,1,.24,2.04.31,3.08-.03,1.04-.03,2.1-.2,3.15-.3,2.09-.85,4.22-1.83,6.18-.96,1.97-2.24,3.82-3.78,5.46-1.59,1.6-3.39,2.94-5.33,3.97-1.93,1.06-4.03,1.68-6.12,2.05-1.04.21-2.1.25-3.14.31-1.04-.04-2.08-.03-3.09-.2-1.02-.09-2-.37-2.97-.6-.95-.32-1.9-.6-2.77-1.03-3.6-1.55-6.42-4.16-8.45-6.95-2.03-2.82-3.1-5.96-3.54-8.86-.44-2.91-.2-5.61.35-7.87.56-2.26,1.36-4.13,2.23-5.52.39-.73.83-1.3,1.2-1.81.35-.52.71-.92,1-1.24.28-.3.49-.54.66-.72.15-.16.23-.24.24-.23,0,0-.06.1-.2.27-.16.19-.36.44-.62.75-.28.32-.62.73-.96,1.26-.36.51-.78,1.1-1.15,1.82-.83,1.39-1.59,3.25-2.12,5.49-.52,2.23-.72,4.89-.27,7.75.46,2.84,1.53,5.91,3.53,8.66,2,2.72,4.77,5.25,8.29,6.76.86.42,1.79.69,2.71,1,.95.22,1.9.49,2.9.58.99.17,2,.16,3.01.19,1.01-.07,2.04-.1,3.06-.31,2.03-.37,4.08-.98,5.96-2.01,1.89-1.01,3.64-2.31,5.19-3.88,1.51-1.6,2.75-3.4,3.69-5.33.96-1.91,1.5-3.99,1.8-6.03.17-1.02.17-2.05.2-3.07-.07-1.01-.1-2.02-.3-3-.12-.99-.43-1.94-.68-2.88-.34-.91-.64-1.83-1.09-2.67-1.63-3.46-4.25-6.15-7.04-8.05-2.82-1.9-5.93-2.87-8.78-3.22-2.87-.35-5.52-.06-7.74.54-2.21.61-4.05,1.43-5.41,2.31-.71.39-1.28.84-1.78,1.21-.52.36-.91.71-1.22,1-.3.27-.54.48-.73.65-.17.14-.26.21-.26.21Z"/>
        <path class="cls-4" d="M110.44,258.78s-.21-.12-.64-.36c-.43-.26-1.06-.63-1.89-1.12-1.68-1.01-4.16-2.49-7.4-4.44h.1c-3.38,3.5-7.84,8.15-13.25,13.78l.02-.16c1.92,2.92,4.06,6.18,6.35,9.66l.05.08-.04.08c-1.89,3.41-3.49,7.3-4.53,11.57l-.02.1-.1.02c-3.5.86-7.29,1.8-11.23,2.77l.14-.18c.11,6.02.23,12.41.36,19.13l-.16-.2c3.5.73,7.37,1.53,11.32,2.35l.13.03.04.13c1.05,3.71,2.7,7.67,4.96,11.38l.07.12-.07.12c-1.86,3.06-3.9,6.44-5.99,9.89l-.04-.29c4.32,4.17,8.99,8.67,13.77,13.28l-.3-.03c3.01-1.97,6.32-4.14,9.66-6.34l.13-.08.13.07c3.4,1.9,7.36,3.51,11.55,4.54l.15.04.04.15c.86,3.52,1.81,7.35,2.76,11.23l-.25-.19c6.06-.11,12.55-.22,19.13-.34l-.25.21c.74-3.58,1.55-7.43,2.36-11.32l.03-.15.15-.04c3.79-1.07,7.72-2.73,11.37-4.94h.01s.14-.09.14-.09l.13.08c3.32,2.01,6.61,4.01,9.88,5.99l-.32.04c4.49-4.65,8.92-9.24,13.29-13.76l-.03.32c-2.13-3.26-4.24-6.48-6.33-9.67l-.08-.13.08-.14c2.04-3.67,3.56-7.56,4.54-11.54l.04-.15.15-.04c3.8-.93,7.54-1.85,11.23-2.75l-.19.25c-.11-6.53-.22-12.91-.33-19.13l.19.23c-3.84-.8-7.61-1.59-11.32-2.36l-.14-.03-.04-.14c-1.16-4.08-2.84-7.91-4.94-11.39l-.07-.12.07-.12c2.06-3.39,4.05-6.67,6-9.88l.03.27c-4.84-4.68-9.4-9.1-13.75-13.3l.25.02c-3.4,2.23-6.6,4.31-9.67,6.33l-.09.06-.1-.06c-3.87-2.16-7.76-3.62-11.56-4.56l-.1-.03-.02-.1c-.99-4.08-1.89-7.76-2.74-11.23l.15.12c-7.42.12-13.73.21-19.13.3l.11-.09c-.96,4.53-1.74,8.24-2.39,11.32v.05s-.06.01-.06.01c-4.05,1.15-6.9,2.49-8.74,3.42-.92.47-1.6.85-2.05,1.1-.45.26-.67.37-.67.37,0,0,.22-.15.65-.41.44-.26,1.11-.66,2.03-1.14,1.84-.96,4.68-2.33,8.74-3.5l-.06.06c.63-3.08,1.39-6.79,2.32-11.33l.02-.09h.09c5.4-.11,11.71-.23,19.13-.37h.12s.03.12.03.12c.86,3.47,1.76,7.15,2.77,11.23l-.13-.13c3.83.94,7.75,2.4,11.66,4.57h-.19c3.07-2.01,6.26-4.11,9.66-6.34l.13-.09.11.11c4.35,4.2,8.93,8.61,13.78,13.28l.12.12-.09.15c-1.94,3.21-3.93,6.5-5.98,9.89v-.23c2.12,3.51,3.83,7.37,5,11.49l-.18-.16c3.71.77,7.48,1.55,11.32,2.35l.19.04v.19c.12,6.22.23,12.6.35,19.13v.2s-.19.05-.19.05c-3.69.91-7.43,1.82-11.23,2.76l.18-.18c-.99,4.02-2.52,7.96-4.59,11.67v-.26c2.08,3.19,4.19,6.41,6.33,9.67l.11.17-.14.15c-4.37,4.53-8.8,9.12-13.29,13.77l-.14.15-.18-.11c-3.27-1.98-6.57-3.98-9.88-5.99h.27s-.01,0-.01,0c-3.68,2.23-7.66,3.91-11.49,4.99l.18-.2c-.81,3.89-1.61,7.75-2.36,11.32l-.04.2h-.21c-6.58.12-13.07.23-19.13.34h-.2s-.05-.19-.05-.19c-.95-3.88-1.89-7.71-2.75-11.23l.18.18c-4.23-1.04-8.24-2.68-11.67-4.59h.26c-3.35,2.19-6.66,4.35-9.67,6.32l-.16.11-.14-.13c-4.78-4.62-9.44-9.12-13.76-13.3l-.13-.13.1-.16c2.09-3.44,4.14-6.82,6-9.88v.23c-2.27-3.75-3.93-7.75-4.99-11.5l.16.15c-3.96-.83-7.82-1.63-11.32-2.37l-.16-.03v-.16c-.11-6.71-.22-13.11-.32-19.13v-.15s.14-.03.14-.03c3.94-.96,7.73-1.89,11.23-2.74l-.13.13c1.07-4.3,2.68-8.21,4.6-11.64v.16c-2.27-3.49-4.4-6.75-6.31-9.68l-.06-.09.07-.08c5.44-5.6,9.93-10.23,13.32-13.73l.05-.05.06.03c3.21,1.97,5.66,3.47,7.33,4.49.82.51,1.45.9,1.88,1.16.42.26.64.41.64.41Z"/>
      </g>
    </g>
  </g>
  <g id="Character">
    <g>
      <g>
        <g>
          <path class="cls-2" d="M322.65,326.71c-2.25-1.45-32.11-7.66-32.11-7.66l-72.01,1.88-25.79,4.76s-4.78,80.02-4.06,81.46c.72,1.44,53.79.58,55.2,2.02,1.41,1.45,50.44,6.65,50.44,6.65l45.38-81.4-17.04-7.71Z"/>
          <path class="cls-3" d="M390.6,347.08c-16.35-13.88-81-25.62-84.61-25.62,0,0-4.97,40.28-50.01,40.28-38.27,0-47.42-38.97-47.42-38.97l-27.93,4.39c-4.3.82-42.52,9.76-48.79,11.54-13.05,3.7-39.79,13.18-47.53,41.43-2.87,10.46-2.79,29.29-6.22,44.32h68.07s219.73.2,219.75,0l73.88.06s-31.86-62.73-49.19-77.43Z"/>
        </g>
        <path class="cls-4" d="M138.11,424.59c-.13.05-3.03-7.45-6.46-16.74-3.43-9.3-6.11-16.87-5.97-16.92.13-.05,3.03,7.44,6.46,16.74,3.43,9.29,6.11,16.87,5.97,16.92Z"/>
        <path class="cls-4" d="M356.71,424.26s-.07-.44-.1-1.23c-.02-.9-.05-2.02-.08-3.36-.04-2.95-.1-6.81-.16-11.08-.1-4.32-.28-8.23-.49-11.06-.1-1.33-.19-2.45-.26-3.35-.06-.79-.08-1.23-.05-1.23.04,0,.12.43.25,1.21.13.78.27,1.92.42,3.34.3,2.83.54,6.75.64,11.08.09,4.33.06,8.25,0,11.09-.03,1.33-.06,2.46-.09,3.36-.03.79-.07,1.23-.1,1.23Z"/>
        <g class="cls-7">
          <path d="M227.43,424.64c3.08-13.21,6.52-26.32,7.42-40.77.15-2.46.23-4.98,1.11-7.29,1.81-4.74,6.84-8.25,6.96-13.32.13-5.31-5.96-9.27-11.18-8.27s-9.12,5.63-10.89,10.64c-1.77,5.01-1.81,10.44-2.03,15.75-.56,13.47-10.32,30.13-13.39,43.26"/>
        </g>
      </g>
      <g>
        <path class="cls-4" d="M208.74,91.02c-23.08,5.59-44.76,27.92-54.45,49.22s-10.21,41.44-7.26,64.59c1.79,14.04,5.72,28.26,8.27,41.61,2.65,13.9-3.95,33.36-11.56,45.38-2.87,4.54-6.72,9.45-5.34,14.62,1.28,4.79,6.54,7.38,11.42,8.65,9.97,2.6,20.72,2.23,30.48-1.07-.43,3.43-.86,6.85-1.3,10.28,26.29-.53,51.61-9.21,76.4-17.79,8.31-2.87,16.99-5.99,22.83-12.47,3.21-3.56,5.34-7.92,7.37-12.24,8.17-17.41,15.4-35.25,21.65-53.41"/>
        <g>
          <path class="cls-4" d="M326.91,122.71c-19.96-24.39-46.76-38.44-78.27-38.96-17.78-.29-25.14,3.4-37.94,6.86-12.8,3.45-24.36,10.32-31.99,21.16-9.07,12.88-16.69,27.29-18.41,42.95-1.76,16.08-3.53,32.27-2.31,48.41,1.21,16.13,5.59,32.38,15.1,45.48l41.05,7.13c22.67.77,45.66,1.52,67.74-3.66,22.09-5.17,43.55-17.06,55.38-36.41,16.43-26.89,9.61-68.57-10.35-92.96Z"/>
          <g>
            <path class="cls-2" d="M290.39,122.44l-54.73-21.75-14.3,1.66c-32.17.11-54.36,35.59-54.57,61.65-.23,28.95.62,64.3,5.22,85.63,9.25,42.9,45.86,46.47,45.86,46.47,0,0-.75,22.86-1.02,37.27l83.79-6.05,4.21-190.18c-.28-7.91-6.56-14.29-14.47-14.69Z"/>
            <g>
              <path class="cls-4" d="M188.4,199.15c.06,2.94,2.59,5.31,5.66,5.31,3.06,0,5.5-2.38,5.45-5.32-.06-2.94-2.59-5.31-5.65-5.31-3.07,0-5.51,2.38-5.45,5.32Z"/>
              <path class="cls-4" d="M175.89,185.22c.74.66,4.9-2.5,11.02-2.74,6.1-.32,10.73,2.43,11.36,1.7.31-.32-.47-1.54-2.48-2.79-1.99-1.24-5.33-2.39-9.14-2.22-3.81.18-6.95,1.63-8.73,3.05-1.81,1.43-2.39,2.71-2.03,3.01Z"/>
              <path class="cls-4" d="M214.99,225.31c0-.34-3.74-.78-9.8-1.22-1.53-.07-2.99-.3-3.31-1.32-.42-1.08.13-2.76.77-4.58,1.23-3.77,2.52-7.72,3.87-11.86,5.35-16.88,9.14-30.72,8.46-30.93-.68-.21-5.58,13.3-10.93,30.18-1.28,4.16-2.51,8.13-3.68,11.92-.48,1.77-1.37,3.79-.46,6.03.47,1.12,1.64,1.88,2.63,2.09.99.24,1.85.21,2.61.22,6.07,0,9.83-.19,9.83-.53Z"/>
              <path class="cls-5" d="M217.81,296.05s29.22.28,57.11-18.64c0,0-13.79,30.85-57.33,29.17l.22-10.53Z"/>
              <path class="cls-4" d="M177.42,169.13c1.08,1.4,5.6.18,10.97.33,5.37-.02,9.87,1.31,10.98-.06.49-.67-.17-2.06-2.11-3.43-1.9-1.36-5.13-2.54-8.83-2.59-3.69-.04-6.94,1.06-8.86,2.37-1.95,1.32-2.63,2.69-2.16,3.37Z"/>
              <path class="cls-4" d="M257.57,197.91c.15,2.93-2.2,5.48-5.26,5.7-3.05.22-5.66-1.98-5.82-4.91-.15-2.93,2.2-5.49,5.26-5.7,3.06-.22,5.67,1.98,5.82,4.91Z"/>
              <path class="cls-4" d="M260.77,182.53c-.71.84-5.51-2.34-12.06-1.97-6.55.28-11.17,3.92-11.92,3.15-.37-.34.32-1.82,2.33-3.46,1.98-1.63,5.41-3.31,9.49-3.51,4.08-.2,7.6,1.12,9.65,2.56,2.1,1.44,2.86,2.85,2.51,3.22Z"/>
              <path class="cls-4" d="M251.87,161.56c-1.15,1.38-5.79.05-11.34.08-5.55-.14-10.23,1.09-11.34-.31-.49-.68.23-2.05,2.26-3.38,2-1.32,5.37-2.42,9.18-2.39,3.81.04,7.14,1.21,9.09,2.57,1.99,1.36,2.65,2.75,2.15,3.42Z"/>
            </g>
            <g>
              <path class="cls-4" d="M345.79,151.25c-19.35-39.42-48.38-65.63-100.26-67.51l41.17,100.31c19.36,28.11,19.35,62.2,9.13,94.77-2.86,9.12-6.72,19.66-1.36,27.58,5.38,7.95,17.76,8.12,25.84,2.94,7.31-4.69,11.94-12.39,16.07-20.11-.5,2.68,1.12,5.91,3.79,6.99,3.59,1.45,7.84-.3,10.39-3.2,2.55-2.9,3.75-6.73,4.72-10.47,3.4-13.13,4.82-26.71,5.47-40.26,1.48-31.05-1.26-63.13-14.96-91.03Z"/>
              <path class="cls-2" d="M297.42,209.86c-.17-3.22,3.14-11.03,6.29-11.7,8.43-1.79,23.78-1.95,25.11,19.63,1.81,29.5-28.18,25.23-28.28,24.39-.08-.66-2.54-21.19-3.13-32.32Z"/>
              <path class="cls-5" d="M308.02,230.91c.12-.1.54.33,1.43.67.87.33,2.35.51,3.85-.16,3.05-1.34,5.36-6.44,5.18-11.77-.09-2.69-.81-5.21-1.89-7.27-1.03-2.1-2.52-3.52-4.11-3.7-1.58-.27-2.64.74-2.95,1.59-.35.85-.12,1.43-.27,1.49-.08.08-.66-.45-.5-1.69.09-.59.39-1.31,1.05-1.92.67-.62,1.69-.98,2.8-.93,2.28.02,4.46,1.98,5.65,4.24,1.31,2.26,2.19,5.09,2.29,8.11.18,5.96-2.52,11.7-6.71,13.2-2.04.67-3.81.15-4.75-.49-.96-.67-1.15-1.32-1.05-1.38Z"/>
            </g>
          </g>
          <path class="cls-4" d="M304.92,198.25l-7.5,8.97c-70.69-42.66-95.6-109.74-92.07-105.12,0,0,22.17-9.12,46.24-5.02,24.06,4.1,69.71,16.14,69.01,44.53-.7,28.38-15.67,56.64-15.67,56.64Z"/>
          <g>
            <path class="cls-5" d="M210.55,239.2c-.95.45-1.47,3.7-1.15,4.99.31,1.3,1.22,2.21,2.18,2.58.97.37,1.99.28,2.99.11,2.43-.41,4.81-1.26,7.16-2.23,2.44-1,5.89-3.29,8.27-4.53-3.83-1.94-8.76-2.73-12.84-3.21-1.43-.16-2.92-.13-4.21.73"/>
            <path class="cls-5" d="M211.52,238.96c-1.1-.63-1.5-2.14-1.09-3.34.42-1.2,1.5-2.08,2.69-2.54,1.19-.45,2.48-.54,3.75-.55,2.98-.04,5.2.86,7.96,1.98s5.62,3.09,7.26,5.27c-6.98-.59-13.4-2.12-20.57-.81"/>
            <path class="cls-4" d="M209.99,245.82c-.06.06-.53-.2-.95-1.04-.41-.83-.66-2.26-.09-3.87.59-1.71,2.39-3.05,4.48-3.63,2.11-.6,4.48-.52,6.83-.27,4.74.49,8.9,1.58,11.84,2.5,2.95.93,4.71,1.67,4.65,1.87-.06.21-1.93-.16-4.93-.81-2.99-.63-7.12-1.54-11.72-2.01-2.3-.25-4.47-.34-6.31.11-1.82.43-3.29,1.44-3.83,2.65-.59,1.27-.55,2.48-.37,3.24.19.78.47,1.17.38,1.25Z"/>
            <path class="cls-5" d="M234.88,260.57c-.13.12-1.13-1.09-3.17-2.46-2.01-1.37-5.2-2.79-8.91-2.88-3.71-.08-6.97,1.2-9.03,2.48-2.1,1.27-3.15,2.43-3.28,2.31-.09-.06.78-1.43,2.87-2.93,2.05-1.49,5.48-2.99,9.46-2.9,3.98.09,7.34,1.74,9.32,3.32,2.02,1.59,2.83,2.99,2.74,3.05Z"/>
          </g>
        </g>
        <circle class="cls-9" cx="307.8" cy="246.9" r="10.39"/>
        <path class="cls-9" d="M208,91.02c-.56,1.6,26.84-4.12,38.44,2.92,11.6,7.04,20.61,17.63,28.44,28.72,15.8,22.37,28.59,48.24,30.04,75.59,3.08-1.26,11.54-.72,15.68,1.9,0,0,14.52-88.38-71.95-116.4,0,0-35.55-7.16-40.65,7.27Z"/>
        <path class="cls-4" d="M215.48,85.45s.54-.23,1.61-.57c1.06-.37,2.68-.75,4.78-1.12,1.06-.11,2.23-.36,3.53-.38.65-.03,1.33-.07,2.03-.11.71.01,1.44.03,2.2.04,3.03.11,6.48.53,10.2,1.44,7.43,1.8,15.9,5.5,24.19,11.26,8.35,5.66,16.65,13.2,23.88,22.32,7.25,9.12,12.7,18.91,16.43,28.27.86,2.37,1.77,4.66,2.53,6.92.68,2.29,1.35,4.51,1.99,6.66.5,2.18.98,4.29,1.44,6.32.45,2.03.67,4.02.99,5.9.14.94.32,1.86.41,2.76.08.9.16,1.78.23,2.64.13,1.71.32,3.32.39,4.83.02,3.03.15,5.63.05,7.76-.14,2.1-.24,3.74-.32,4.89-.08,1.12-.15,1.7-.18,1.7-.04,0-.04-.59-.03-1.71.03-1.14.07-2.78.12-4.88.03-2.12-.15-4.71-.23-7.72-.09-1.5-.3-3.1-.46-4.8-.09-.85-.18-1.72-.27-2.62-.1-.89-.29-1.8-.44-2.73-.34-1.86-.59-3.83-1.05-5.84-.48-2.01-.98-4.1-1.49-6.26-.65-2.13-1.33-4.33-2.02-6.59-.78-2.24-1.68-4.5-2.55-6.85-3.75-9.27-9.18-18.96-16.36-27.99-7.16-9.04-15.36-16.53-23.6-22.18-8.18-5.74-16.52-9.47-23.83-11.34-3.66-.94-7.05-1.4-10.04-1.57-.75-.03-1.47-.06-2.17-.08-.7.02-1.37.04-2.01.06-1.29,0-2.45.21-3.5.29-2.09.31-3.71.61-4.78.92-1.08.27-1.66.4-1.67.36Z"/>
      </g>
      <g>
        <g>
          <path class="cls-2" d="M215.81,424.26s7.69-29.89,10.76-42.19c.73-2.92.87-5.96.42-8.94l-.81-5.37c3.14-.55,4.46-1.17,7.35-3.61h0s3.32.61,5.08-2.8c1.25-2.42,2.79-6.52,4.29-10.33,2.74-6.96,3.71-16.73,3.71-16.73,0,0,4.71-8.78,4.43-12.52-.28-3.73-2.92-9.84-2.92-9.84,0,0,.67-5.96-.45-8.45-1.71-3.79-6.09-5.78-10.64-4.52-3.88,1.08-22.92,4.92-22.92,4.92l-3.55-3.7-.91-13.26,10.74-3.72s6.99,3.08,12.11,1.14c2.32-.88,3.7-2.16,4.53-3.31.88-1.22.42-2.95-.93-3.62-4.47-2.22-14.76-7.19-18.08-7.51-4.28-.41-20.82,7.54-22.16,9.97-.28.5-2.31,29.7-2.31,29.7,0,0-4.42,4.7-4.42,11.2s-1.66,55.01-1.66,55.01l-24.34,48.45"/>
          <path class="cls-5" d="M163.14,424.24s.13-.29.4-.85c.28-.57.69-1.4,1.22-2.49,1.09-2.2,2.7-5.43,4.77-9.6,4.18-8.36,10.24-20.48,17.78-35.58l-.02.07c.27-9.31.57-19.69.9-30.97.17-5.64.34-11.5.51-17.56.04-1.52.09-3.04.13-4.58.07-1.53.02-3.12.33-4.68.6-3.12,2.06-6.09,4.21-8.57l-.06.15c.47-6.54.96-13.29,1.46-20.22.14-1.73.27-3.47.41-5.23.08-.88.15-1.76.23-2.64.05-.45.08-.86.15-1.35.03-.13.04-.27.09-.39l.23-.29c.15-.21.32-.37.5-.5,1.41-1.18,2.97-2.05,4.55-2.94,1.58-.87,3.21-1.67,4.86-2.44,3.33-1.49,6.71-2.98,10.41-3.76.91-.2,1.95-.21,2.86.04.93.22,1.81.53,2.7.84,1.77.65,3.5,1.38,5.23,2.15,1.73.76,3.45,1.56,5.17,2.38l2.58,1.25,1.29.63c.44.2.91.54,1.2.98.62.86.67,2.11.06,3-.57.83-1.29,1.53-2.09,2.11-.8.58-1.69,1.04-2.62,1.39-.94.32-1.92.55-2.91.61-1.63.13-3.24-.05-4.82-.36-1.57-.32-3.1-.78-4.59-1.39h.19c-3.61,1.26-7.19,2.5-10.74,3.73l.17-.26c.31,4.47.61,8.89.91,13.26l-.07-.16c1.19,1.24,2.37,2.47,3.55,3.7l-.24-.07c7.62-1.57,15.12-3.05,22.33-4.77,1.78-.55,3.75-.72,5.59-.28,1.83.44,3.52,1.45,4.72,2.89.6.72,1.07,1.52,1.38,2.42.27.9.37,1.81.43,2.71.1,1.8.02,3.58-.16,5.35l-.02-.12c.8,1.9,1.5,3.82,2.08,5.76.28.97.53,1.95.7,2.95.19.98.21,2.05,0,3.04-.39,1.97-1.1,3.81-1.85,5.61-.76,1.79-1.59,3.52-2.47,5.2l.03-.08c-.45,3.97-1.12,7.8-2.06,11.48-.89,3.71-2.41,7.1-3.69,10.43-.67,1.66-1.34,3.3-2.11,4.87-.38.79-.89,1.56-1.58,2.13-.68.58-1.52.95-2.38,1.09-.43.07-.87.09-1.3.06l-.17-.02h-.05c.31-.09.08-.03.15-.04h0s-.02.02-.02.02l-.06.05-.24.2-.48.4c-.65.52-1.32,1.02-2.03,1.45-1.42.88-3.05,1.27-4.6,1.53l.15-.2c.32,2.23.69,4.39.95,6.53.21,2.15.11,4.26-.24,6.27-.38,2.01-.96,3.88-1.4,5.73-.47,1.84-.93,3.63-1.38,5.36-1.78,6.9-3.3,12.82-4.55,17.66-1.25,4.83-2.22,8.57-2.88,11.12-.33,1.26-.59,2.22-.76,2.88-.17.65-.28.98-.28.98,0,0,.07-.34.23-.99.16-.66.4-1.63.71-2.89.64-2.55,1.58-6.3,2.79-11.14,1.22-4.85,2.72-10.78,4.46-17.68.44-1.73.89-3.51,1.36-5.36.44-1.85,1.01-3.75,1.38-5.72.34-1.98.44-4.06.22-6.18-.26-2.11-.64-4.28-.96-6.51l-.03-.17.17-.03c1.54-.27,3.1-.65,4.47-1.5.69-.41,1.34-.9,1.98-1.42l.48-.39.24-.2.06-.05h.01s0-.02,0-.02c.07-.02-.15.04.16-.05h.03s.15.02.15.02c.4.03.81.02,1.2-.05,1.64-.24,2.97-1.46,3.66-3.02.76-1.55,1.42-3.19,2.09-4.84,1.28-3.34,2.79-6.71,3.66-10.38.92-3.65,1.59-7.48,2.03-11.42v-.04s.03-.04.03-.04c.87-1.67,1.7-3.4,2.44-5.17.74-1.77,1.44-3.61,1.81-5.51.19-.96.17-1.9-.01-2.88-.17-.97-.41-1.93-.69-2.89-.57-1.92-1.27-3.83-2.06-5.7l-.02-.06v-.06c.17-1.73.26-3.51.16-5.27-.06-.88-.16-1.76-.41-2.59-.28-.8-.73-1.59-1.3-2.25-1.13-1.35-2.72-2.3-4.45-2.72-1.75-.41-3.58-.26-5.35.28-7.25,1.73-14.72,3.21-22.36,4.79l-.14.03-.1-.1c-1.18-1.23-2.36-2.46-3.55-3.7l-.06-.07v-.09c-.31-4.37-.61-8.79-.92-13.25v-.2s.17-.07.17-.07c3.55-1.23,7.13-2.47,10.74-3.72l.09-.03.1.04c2.87,1.14,6.03,1.92,9.15,1.71.95-.06,1.88-.28,2.77-.58.89-.34,1.73-.77,2.5-1.32.76-.55,1.44-1.22,1.96-1.97.49-.72.45-1.72-.05-2.42-.25-.36-.58-.61-1-.81l-1.29-.63-2.57-1.25c-1.72-.82-3.43-1.62-5.16-2.38-1.72-.76-3.45-1.49-5.2-2.14-1.75-.61-3.52-1.31-5.3-.86-3.58.75-6.98,2.24-10.28,3.71-1.64.77-3.26,1.56-4.83,2.43-1.56.87-3.13,1.76-4.46,2.87-.17.13-.33.28-.44.44l-.19.23c-.03.08-.02.17-.04.26-.05.39-.1.86-.14,1.29-.08.88-.15,1.76-.23,2.63-.14,1.75-.28,3.49-.42,5.22-.51,6.92-1,13.67-1.48,20.21v.08s-.06.07-.06.07c-2.07,2.39-3.52,5.31-4.1,8.33-.3,1.51-.26,3.05-.32,4.6-.05,1.54-.09,3.07-.14,4.58-.19,6.06-.37,11.92-.54,17.56-.35,11.28-.68,21.66-.97,30.97v.04s-.02.03-.02.03c-7.61,15.07-13.72,27.17-17.93,35.51-2.11,4.15-3.74,7.37-4.85,9.56-.55,1.08-.98,1.9-1.27,2.47-.29.55-.45.83-.45.83Z"/>
        </g>
        <path class="cls-5" d="M226.01,367.77c-.02-.08,1.31-.1,3.41-1.07,1.03-.5,2.22-1.28,3.37-2.45,1.16-1.15,2.29-2.65,3.48-4.34,2.4-3.37,4.27-7.96,6.09-13.12.91-2.56,1.88-5.31,1.95-8.25.03-1.46-.23-2.95-.87-4.3-.66-1.34-1.7-2.5-2.97-3.39-2.56-1.78-5.63-2.51-8.56-2.82-2.95-.33-5.85-.39-8.57-.92-2.75-.49-5.15-1.65-7.37-2.6-2.22-.98-4.37-1.73-6.41-1.92-1.02-.1-1.99-.05-2.89.13-.89.19-1.72.51-2.47.83-1.5.65-2.71,1.39-3.63,2.09-.91.7-1.49,1.4-1.77,1.93-.14.27-.22.48-.25.63-.04.15-.07.23-.08.23s0-.08.03-.24c.01-.16.08-.39.21-.67.26-.56.83-1.3,1.74-2.04.91-.73,2.12-1.51,3.63-2.2.76-.34,1.58-.67,2.52-.88.93-.2,1.94-.26,2.99-.18,2.11.17,4.31.92,6.55,1.88,2.25.95,4.61,2.06,7.29,2.53,2.67.51,5.55.56,8.54.88,2.97.31,6.13,1.04,8.8,2.9,1.33.92,2.44,2.16,3.13,3.59.69,1.44.96,3.02.92,4.54-.08,3.06-1.09,5.84-2.01,8.41-1.85,5.15-3.77,9.78-6.25,13.17-1.21,1.68-2.38,3.18-3.58,4.33-1.19,1.17-2.42,1.95-3.48,2.43-1.07.48-1.97.66-2.57.78-.28.04-.5.06-.69.09-.16.02-.24.02-.24.01Z"/>
        <path class="cls-5" d="M226.54,370.25c-.08.02-.39-1.28-.95-3.36-.55-2.08-1.39-4.94-2.45-8.05-1.06-3.11-2.15-5.88-2.92-7.9-.78-2.01-1.24-3.27-1.17-3.3.07-.03.64,1.18,1.51,3.16.87,1.98,2.01,4.74,3.08,7.87,1.07,3.13,1.85,6.02,2.31,8.13.23,1.06.4,1.92.49,2.51.1.6.13.93.1.94Z"/>
        <path class="cls-5" d="M218.19,347.81s.18.06.47-.04c.3-.09.61-.42.87-.97.28-.53.59-1.2.8-2,.21-.8.29-1.75-.02-2.7l-.14-.44.43.17c2.21.88,4.94,1.68,7.91,2.49.29.08.59.16.88.24l.41.11-.29.31c-1.25,1.36-1.57,3.31-1.11,4.81l.06.2-.19.09c-2.36,1.09-3.75,2.97-4.43,4.34-.69,1.4-.79,2.33-.87,2.31-.02,0-.01-.23.06-.66.08-.42.23-1.04.55-1.77.62-1.45,2.01-3.46,4.48-4.65l-.13.29c-.53-1.65-.21-3.79,1.18-5.3l.12.43c-.29-.08-.58-.16-.88-.24-2.97-.8-5.72-1.65-7.93-2.59l.29-.27c.32,1.07.19,2.1-.06,2.93-.25.84-.6,1.5-.92,2.03-.29.53-.7.93-1.06.97-.35.07-.52-.08-.51-.08Z"/>
        <path class="cls-5" d="M195.25,318.41s.15-.19.47-.51c.34-.3.85-.74,1.61-1.16,1.5-.88,3.96-1.59,7.04-1.79,6.14-.31,14.6-.49,23.95-.76,2.34-.05,4.61-.16,6.84-.13,2.21.04,4.43.35,6.27,1.36,1.84,1,3.16,2.58,4.02,4.19.87,1.62,1.32,3.29,1.53,4.82.4,3.08.05,5.58-.15,7.28-.11.85-.22,1.51-.29,1.95-.08.45-.13.68-.14.68-.02,0,0-.24.04-.69.05-.5.12-1.15.2-1.96.14-1.7.43-4.19-.01-7.2-.23-1.5-.69-3.11-1.54-4.67-.85-1.54-2.12-3.04-3.87-3.97-1.75-.94-3.88-1.24-6.05-1.27-2.19-.02-4.48.1-6.82.14-9.35.27-17.83.4-23.94.61-3.05.15-5.47.79-6.97,1.6-1.52.78-2.13,1.55-2.18,1.49Z"/>
        <path class="cls-5" d="M231.76,300.15s.31-.09.89-.15c.57-.09,1.42-.07,2.45.03,2.06.23,4.89,1.24,7.31,3.34,2.43,2.07,4.02,4.53,4.93,6.37.24.46.43.89.58,1.27.16.38.29.71.37.98.18.55.26.86.23.87-.09.03-.52-1.17-1.51-2.95-.98-1.78-2.58-4.14-4.94-6.15-2.34-2.03-5.04-3.05-7.03-3.37-2-.31-3.28-.13-3.29-.25Z"/>
        <path class="cls-5" d="M193.56,309.54s.22-.26.67-.65c.45-.4,1.16-.91,2.09-1.45.93-.55,2.12-1.06,3.47-1.51,1.36-.42,2.9-.75,4.51-1,3.24-.47,6.17-.7,8.28-1.01,2.11-.3,3.4-.57,3.42-.49,0,.03-.31.14-.88.3-.58.17-1.42.35-2.47.55-2.1.41-5.05.69-8.26,1.16-1.6.24-3.11.56-4.45.94-1.33.42-2.5.88-3.43,1.38-1.87.98-2.88,1.86-2.94,1.77Z"/>
      </g>
    </g>
  </g>
</svg>